<svg width="230" height="230" viewBox="0 0 230 230" fill="none" xmlns="http://www.w3.org/2000/svg">
<circle cx="115" cy="115" r="114.5" fill="#4935C7" />
<path d="M147.5 14L152.327 28.8561H167.948L155.31 38.0377L160.137 52.8939L147.5 43.7123L134.863 52.8939L139.69 38.0377L127.052 28.8561H142.673L147.5 14Z" fill="#CF1CBD"/>
<path d="M190.5 57L195.327 71.8561H210.948L198.31 81.0377L203.137 95.8939L190.5 86.7123L177.863 95.8939L182.69 81.0377L170.052 71.8561H185.673L190.5 57Z" fill="#CF1CBD"/>
<path d="M147.5 57L152.327 71.8561H167.948L155.31 81.0377L160.137 95.8939L147.5 86.7123L134.863 95.8939L139.69 81.0377L127.052 71.8561H142.673L147.5 57Z" fill="#CF1CBD"/>
<path d="M55.4656 182.628C53.2267 180.714 49.8601 180.977 47.9461 183.216C46.0321 185.455 46.2955 188.821 48.5344 190.735C50.7732 192.649 54.1398 192.386 56.0539 190.147C57.9679 187.908 57.7045 184.542 55.4656 182.628ZM125.343 99.3502L51.2399 186.032L52.7601 187.331L126.864 100.65L125.343 99.3502Z" fill="white"/>
<path d="M98.4656 182.628C96.2267 180.714 92.8601 180.977 90.9461 183.216C89.0321 185.455 89.2955 188.821 91.5344 190.735C93.7732 192.649 97.1398 192.386 99.0539 190.147C100.968 187.908 100.705 184.542 98.4656 182.628ZM168.343 99.3502L94.2399 186.032L95.7601 187.331L169.864 100.65L168.343 99.3502Z" fill="white"/>
<path d="M55.4656 139.628C53.2267 137.714 49.8601 137.977 47.9461 140.216C46.0321 142.455 46.2955 145.821 48.5344 147.735C50.7732 149.649 54.1398 149.386 56.0539 147.147C57.9679 144.908 57.7045 141.542 55.4656 139.628ZM125.343 56.3502L51.2399 143.032L52.7601 144.331L126.864 57.6498L125.343 56.3502Z" fill="white"/>
</svg>
